HIERARCHY
ROOT Hips
{
 OFFSET 0.000000 0.000000 0.000000
 CHANNELS 6 Xposition Yposition Zposition Yrotation Xrotation Zrotation
 JOINT Chest
 {
  OFFSET 0.000000 10.385163 0.011643
  CHANNELS 3 Yrotation Xrotation Zrotation
  JOINT Chest2
  {
   OFFSET 0.000000 11.579334 -0.021150
   CHANNELS 3 Yrotation Xrotation Zrotation
   JOINT Chest3
   {
    OFFSET 0.000000 10.463212 0.000000
    CHANNELS 3 Yrotation Xrotation Zrotation
    JOINT Chest4
    {
     OFFSET 0.000000 10.463212 0.000000
     CHANNELS 3 Yrotation Xrotation Zrotation
     JOINT Neck
     {
      OFFSET 0.000000 14.544862 0.000000
      CHANNELS 3 Yrotation Xrotation Zrotation
      JOINT Head
      {
       OFFSET 0.000000 9.730630 -0.050295
       CHANNELS 3 Yrotation Xrotation Zrotation
       End Site
       {
        OFFSET 0.000000 18.757589 -0.026270
       }
      }
     }
     JOINT RightCollar
     {
      OFFSET -2.985174 8.102313 0.000000
      CHANNELS 3 Yrotation Xrotation Zrotation
      JOINT RightShoulder
      {
       OFFSET -13.558590 0.000000 0.000000
       CHANNELS 3 Yrotation Xrotation Zrotation
       JOINT RightElbow
       {
        OFFSET -28.208579 0.000000 0.000000
        CHANNELS 3 Yrotation Xrotation Zrotation
        JOINT RightWrist
        {
         OFFSET -23.322907 0.000000 0.010349
         CHANNELS 3 Yrotation Xrotation Zrotation
         End Site
         {
          OFFSET -17.603338 0.000000 0.000000
         }
        }
       }
      }
     }
     JOINT LeftCollar
     {
      OFFSET 2.985174 8.102313 0.000000
      CHANNELS 3 Yrotation Xrotation Zrotation
      JOINT LeftShoulder
      {
       OFFSET 13.558590 0.000000 0.000000
       CHANNELS 3 Yrotation Xrotation Zrotation
       JOINT LeftElbow
       {
        OFFSET 28.208579 0.000000 0.000000
        CHANNELS 3 Yrotation Xrotation Zrotation
        JOINT LeftWrist
        {
         OFFSET 23.322907 0.000000 0.010349
         CHANNELS 3 Yrotation Xrotation Zrotation
         End Site
         {
          OFFSET 17.603338 0.000000 0.000000
         }
        }
       }
      }
     }
    }
   }
  }
 }
 JOINT RightHip
 {
  OFFSET -8.341224 -0.057053 -0.005822
  CHANNELS 3 Yrotation Xrotation Zrotation
  JOINT RightKnee
  {
   OFFSET 0.000000 -44.280013 0.005508
   CHANNELS 3 Yrotation Xrotation Zrotation
   JOINT RightAnkle
   {
    OFFSET 0.000000 -43.261728 0.009315
    CHANNELS 3 Yrotation Xrotation Zrotation
    JOINT RightToe
    {
     OFFSET 0.000000 -8.082955 18.257715
     CHANNELS 3 Yrotation Xrotation Zrotation
     End Site
     {
      OFFSET 0.000000 -1.634678 7.189621
     }
    }
   }
  }
 }
 JOINT LeftHip
 {
  OFFSET 8.341224 -0.057053 -0.005822
  CHANNELS 3 Yrotation Xrotation Zrotation
  JOINT LeftKnee
  {
   OFFSET 0.000000 -44.280013 0.005508
   CHANNELS 3 Yrotation Xrotation Zrotation
   JOINT LeftAnkle
   {
    OFFSET 0.000000 -43.261728 0.009315
    CHANNELS 3 Yrotation Xrotation Zrotation
    JOINT LeftToe
    {
     OFFSET 0.000000 -8.082955 18.257715
     CHANNELS 3 Yrotation Xrotation Zrotation
     End Site
     {
      OFFSET 0.000000 -1.634678 7.189621
     }
    }
   }
  }
 }
}
MOTION
Frames: 5
Frame Time: 0.016667
-181.037668 95.763038 -560.288579 10.197177 -5.487502 2.636948 0.993578 6.990882 4.220849 0.377033 3.115981 1.857335 0.377036 3.115986 1.857336 0.273234 2.338166 1.390738 18.907974 13.329151 -3.605984 36.915500 -7.972972 -13.757331 0.973877 -5.183541 4.560306 -13.336666 -5.874450 72.263958 -2.045195 1.411909 -5.830197 3.974052 -0.860244 -4.638939 1.201615 -3.594594 -13.422193 5.805418 -8.935344 -76.466169 -8.768684 17.522952 -3.437865 0.451730 -2.914352 -2.488572 -5.101769 7.562447 -12.874073 3.437885 6.603575 -0.000637 -4.046422 -9.536067 11.422353 -0.000039 0.066940 -0.119540 14.058048 0.012848 12.876642 -2.611227 1.629087 2.230246 0.219800 -1.606087 -9.127512 0.000000 0.000000 0.000000
-179.632578 95.553222 -560.384866 10.348532 -5.137401 2.480168 1.109624 6.901441 4.314495 0.427952 3.077496 1.897428 0.427955 3.077498 1.897429 0.311331 2.309482 1.420575 18.878297 13.255675 -3.592436 36.876001 -8.117658 -13.747962 0.945064 -5.115616 4.470989 -13.424313 -5.704529 71.973854 -1.950164 1.564087 -5.791798 4.033491 -0.840445 -4.756661 1.107886 -3.722634 -13.465816 5.815320 -8.791181 -76.541015 -9.391825 17.983942 -3.951390 0.523778 -2.756988 -2.385552 -5.591301 6.970713 -13.530969 3.667160 6.984774 -0.146692 -4.008758 -9.510633 11.826881 -0.000012 0.133599 -0.239236 14.833571 0.312186 11.790463 -2.675628 0.753730 2.959895 0.370415 -1.694732 -9.553328 0.000000 0.000000 0.000000
-178.208385 95.398389 -560.474534 10.421690 -4.815865 2.385151 1.203791 6.844507 4.354935 0.469673 3.053169 1.914174 0.469673 3.053169 1.914174 0.342605 2.291376 1.432943 18.883372 13.166594 -3.574402 36.903544 -8.281920 -13.746288 0.854961 -4.991128 4.452118 -13.437155 -5.729180 71.704301 -1.796897 1.912786 -5.739480 4.147106 -0.811179 -4.813887 1.001125 -3.852908 -13.502886 5.852687 -8.649867 -76.543941 -9.935210 18.448388 -4.500656 0.480246 -2.684687 -2.177818 -6.172318 6.247786 -14.260678 3.954561 7.515570 -0.279178 -3.783666 -9.339358 12.045273 0.000000 0.000000 0.000000 15.866257 0.420270 10.956973 -3.193936 0.197316 3.271410 0.522111 -1.549902 -10.079831 0.000000 0.000000 0.000000
-176.769440 95.308969 -560.530176 10.415382 -4.584108 2.358701 1.255721 6.851591 4.327958 0.493047 3.056730 1.901415 0.493051 3.056727 1.901417 0.360189 2.294103 1.423258 18.943217 13.041322 -3.546050 37.039149 -8.498614 -13.754808 0.665673 -4.765149 4.574351 -13.318573 -6.079502 71.395376 -1.663624 2.608022 -5.673148 4.348487 -0.764464 -4.739805 0.876507 -4.023431 -13.559844 5.993447 -8.490571 -76.396525 -10.403954 18.908169 -5.178676 0.204674 -2.781627 -1.776407 -6.968539 5.423047 -15.121887 4.353114 8.195049 -0.372584 -3.187041 -9.076952 12.038200 -0.000092 -0.271329 0.795612 17.863785 0.120964 10.678341 -4.823782 0.230700 2.804575 0.539707 -0.977705 -10.835907 0.000000 0.000000 0.000000
-175.311391 95.274531 -560.579199 10.332065 -4.381276 2.392696 1.285308 6.891772 4.248666 0.506969 3.074642 1.865647 0.506977 3.074633 1.865648 0.370757 2.307542 1.396350 19.037665 12.900495 -3.513491 37.242183 -8.734386 -13.771814 0.418085 -4.481506 4.766018 -13.123855 -6.626590 71.105480 -1.466332 3.498784 -5.588613 4.607153 -0.709830 -4.607550 0.738352 -4.196241 -13.608766 6.163719 -8.335036 -76.178548 -10.796276 19.373747 -5.888273 -0.187544 -2.955965 -1.264354 -7.843820 4.454065 -16.042184 4.816391 9.019980 -0.458118 -2.400856 -8.680141 11.840759 -0.002633 -0.742010 1.950594 20.132181 -0.381218 10.626436 -6.895446 0.590515 1.932794 0.550890 -0.175091 -11.689568 0.000000 -0.000000 0.000000
